<svg version="1.1" id="Layer_1" xmlns="http://www.w3.org/2000/svg" xmlns:xlink="http://www.w3.org/1999/xlink" x="0px" y="0px"
	 width="100%" viewBox="0 0 150 150" enable-background="new 0 0 150 150" xml:space="preserve">
<path fill="#021F3F" opacity="1.000000" stroke="none" 
	d="
M102.000000,151.000000 
	C68.000000,151.000000 34.500000,151.000000 1.000000,151.000000 
	C1.000000,101.000000 1.000000,51.000000 1.000000,1.000000 
	C51.000000,1.000000 101.000000,1.000000 151.000000,1.000000 
	C151.000000,51.000000 151.000000,101.000000 151.000000,151.000000 
	C134.833328,151.000000 118.666664,151.000000 102.000000,151.000000 
M61.514465,43.407368 
	C61.934265,42.939285 62.354065,42.471203 62.919708,41.241356 
	C62.458454,40.096424 62.317520,38.568218 61.482574,37.870422 
	C56.962070,34.092434 46.597225,34.760735 42.418625,38.914955 
	C38.156155,43.152557 39.222462,50.436634 44.662785,53.129784 
	C48.073063,54.817997 51.846748,55.823204 55.117977,57.720154 
	C56.813290,58.703247 57.770218,60.959648 59.060726,62.640804 
	C57.217934,63.763977 55.308502,65.921318 53.545399,65.807701 
	C49.061367,65.518768 44.642796,64.213959 40.172760,63.310677 
	C38.768494,67.527771 41.033958,69.605827 45.236820,70.664833 
	C46.415600,70.961845 47.924225,71.863388 48.363026,72.882942 
	C52.106716,81.581406 55.837986,90.297134 59.127254,99.172874 
	C60.298508,102.333374 61.640110,103.484406 65.089241,103.593513 
	C68.810028,103.711197 69.964607,101.854309 71.041695,99.007042 
	C72.752228,94.485268 74.687431,90.048477 76.527596,85.575737 
	C79.533562,90.642212 81.195663,95.631348 83.277916,100.438499 
	C83.825249,101.702087 85.677017,103.187347 86.923485,103.181709 
	C88.920456,103.172684 92.178635,102.523163 92.703415,101.242638 
	C96.495293,91.989876 99.733910,82.510376 103.137604,73.130745 
	C97.669716,71.447594 95.398376,73.542984 94.104057,78.265526 
	C92.709534,83.353691 90.492195,88.216362 88.472603,93.607826 
	C81.957314,81.785690 78.861488,70.966545 86.561584,59.052391 
	C90.223518,53.386383 91.735519,46.330872 94.280556,39.752003 
	C89.094086,38.038727 86.244736,39.020493 84.893524,44.160843 
	C83.732452,48.577881 81.672844,52.758736 79.700089,57.844402 
	C77.514313,52.624474 75.639160,48.375275 73.948814,44.053783 
	C71.642830,38.158340 71.582962,38.077343 64.461021,39.982407 
	C67.588226,47.323605 70.758224,54.558369 73.726791,61.874859 
	C74.499809,63.780075 75.468498,66.189499 74.938507,67.941048 
	C72.329468,76.563522 69.246300,85.042534 66.330490,93.572182 
	C65.835403,93.566109 65.340317,93.560036 64.845238,93.553963 
	C61.837898,86.277679 58.830559,79.001396 55.733223,71.507355 
	C56.462303,71.316742 57.247448,71.136658 58.017456,70.906029 
	C62.658970,69.515816 65.430603,66.441750 65.656479,61.579372 
	C65.878899,56.791397 63.050816,53.898445 58.836845,52.220482 
	C55.909103,51.054688 52.781353,50.290863 50.037331,48.804138 
	C48.551208,47.998951 47.681858,46.055393 46.534279,44.625362 
	C48.002384,43.466942 49.468983,41.346378 50.938900,41.344078 
	C54.328064,41.338760 57.718849,42.362015 61.514465,43.407368 
M71.593300,121.625755 
	C74.213486,122.335747 74.213486,122.335747 76.540512,116.197815 
	C77.201561,118.340424 77.467422,120.110329 78.319420,121.527946 
	C78.672684,122.115715 81.136787,122.241600 81.190285,122.084259 
	C82.381485,118.581192 83.369698,115.009102 84.396416,111.450111 
	C83.792496,111.244553 83.188576,111.039001 82.584656,110.833450 
	C81.710625,112.838631 80.836594,114.843819 79.514099,117.877838 
	C78.999802,114.958389 78.680496,113.145798 78.361183,111.333206 
	C77.935112,111.094307 77.509048,110.855408 77.082977,110.616508 
	C75.689949,112.306496 74.296913,113.996475 73.113358,115.432320 
	C72.183006,114.097366 71.192169,112.675636 70.201332,111.253906 
	C69.744888,111.497124 69.288445,111.740349 68.831993,111.983566 
	C69.653923,114.971031 70.475861,117.958488 71.593300,121.625755 
M102.029930,121.628899 
	C102.106461,120.856850 102.182999,120.084801 102.279854,119.107742 
	C104.054436,120.601074 105.591805,121.894783 107.855003,123.799286 
	C107.264717,120.883034 106.476311,119.289635 106.740730,117.896004 
	C107.886879,111.855156 106.647362,110.589211 99.631088,111.594467 
	C99.631088,114.677856 99.524055,117.823990 99.734200,120.948776 
	C99.770126,121.482986 101.161430,121.926041 102.029930,121.628899 
M54.495892,111.404083 
	C49.779987,110.826950 53.335644,115.264671 51.365673,116.468208 
	C49.626175,114.597710 47.850761,112.688599 45.463039,110.121063 
	C45.463039,115.204605 45.463039,119.049736 45.463039,122.894875 
	C45.844772,122.920822 46.226501,122.946770 46.608234,122.972717 
	C46.883099,121.131950 47.157967,119.291183 47.480995,117.127876 
	C49.731445,119.494911 51.582962,121.442345 53.434479,123.389778 
	C53.895432,123.093803 54.356388,122.797821 54.817341,122.501846 
	C54.817341,119.067352 54.817341,115.632858 54.495892,111.404083 
M96.404411,114.369675 
	C94.421303,110.926941 91.380859,109.476242 88.302795,112.152557 
	C86.611084,113.623466 85.457733,116.876877 85.713219,119.140175 
	C86.061020,122.221275 89.032753,123.717850 92.158607,122.996178 
	C96.250237,122.051521 97.680641,119.152351 96.404411,114.369675 
M63.388447,112.063164 
	C62.560638,112.297424 61.649532,112.867928 60.924274,112.688248 
	C59.796700,112.408882 58.795528,111.619293 57.740784,111.045975 
	C57.409512,111.313644 57.078236,111.581314 56.746964,111.848984 
	C61.409393,115.398689 59.046856,119.051376 56.917114,122.700653 
	C57.287582,122.888802 57.658047,123.076942 58.028511,123.265091 
	C59.302814,122.149437 60.577118,121.033783 61.419014,120.296700 
	C63.165577,121.342117 64.675446,122.245865 66.185310,123.149605 
	C66.517151,122.831604 66.848991,122.513603 67.180832,122.195602 
	C64.457542,119.349930 62.567036,116.434669 65.917267,113.081436 
	C65.234360,112.585960 64.551453,112.090492 63.388447,112.063164 
M27.416042,113.511078 
	C28.594992,113.609200 29.773943,113.707314 30.952892,113.805428 
	C28.895536,110.582001 26.100924,109.912445 24.288500,112.362305 
	C20.391808,117.629456 28.192396,116.846535 29.045965,120.636490 
	C26.860567,120.322227 25.101879,120.069321 23.343191,119.816422 
	C23.182480,120.409660 23.021769,121.002899 22.861057,121.596138 
	C24.721869,122.063400 26.647573,123.045174 28.421227,122.821449 
	C29.653702,122.666000 31.708469,120.676727 31.561953,119.820580 
	C31.317648,118.393013 29.599089,117.221252 28.511549,115.933083 
	C27.920450,115.232933 27.350595,114.514847 27.416042,113.511078 
M126.612785,118.785515 
	C126.206490,119.436089 125.813866,120.621529 125.391220,120.632332 
	C124.320053,120.659721 123.235420,120.160118 122.156189,119.871559 
	C121.992668,120.505013 121.829147,121.138474 121.665627,121.771935 
	C123.472115,122.162941 125.296638,122.900940 127.078003,122.808388 
	C128.068161,122.756943 129.910263,120.788460 129.795685,120.589455 
	C128.482513,118.308640 126.866859,116.201988 125.240730,113.921173 
	C126.304047,113.921173 127.744728,113.921173 129.185410,113.921173 
	C129.300797,113.410370 129.416183,112.899574 129.531570,112.388771 
	C127.885674,111.945343 126.177879,111.024628 124.615753,111.227211 
	C123.583954,111.361023 121.809235,113.733322 122.003792,114.029968 
	C123.061356,115.642426 124.627815,116.921127 126.612785,118.785515 
M112.764893,111.550865 
	C110.369774,113.031990 110.132896,119.447639 112.668579,123.219704 
	C113.027527,121.461220 113.307091,120.091675 113.532303,118.988365 
	C115.527351,120.546219 117.252632,121.893417 118.977905,123.240616 
	C119.267014,122.899826 119.556129,122.559036 119.845238,122.218254 
	C118.630577,120.296394 117.415916,118.374542 116.236519,116.508469 
	C117.422775,114.755524 118.525543,113.125938 119.628311,111.496361 
	C119.343056,111.237251 119.057793,110.978142 118.772537,110.719032 
	C117.022598,112.020500 115.272652,113.321960 113.260269,114.818604 
	C113.158974,113.817245 113.082253,113.058762 112.764893,111.550865 
M39.078861,113.439087 
	C38.335358,113.464645 37.425426,113.774681 36.882648,113.457130 
	C35.716778,112.775063 34.740170,111.769485 33.686081,110.896339 
	C33.486462,111.155594 33.286839,111.414848 33.087215,111.674103 
	C34.705814,115.475235 36.324409,119.276367 37.985073,123.176292 
	C39.618725,118.800919 41.041092,114.991425 42.463459,111.181931 
	C42.256210,111.036018 42.048965,110.890114 41.841717,110.744209 
	C41.052448,111.447464 40.263180,112.150711 39.078861,113.439087 
z"/>
<path fill="#EBBE2A" opacity="1.000000" stroke="none" 
	d="
M61.108974,42.967976 
	C57.718849,42.362015 54.328064,41.338760 50.938900,41.344078 
	C49.468983,41.346378 48.002384,43.466942 46.534279,44.625359 
	C47.681858,46.055393 48.551208,47.998951 50.037331,48.804138 
	C52.781353,50.290863 55.909103,51.054688 58.836845,52.220482 
	C63.050816,53.898445 65.878899,56.791397 65.656479,61.579372 
	C65.430603,66.441750 62.658970,69.515816 58.017456,70.906029 
	C57.247448,71.136658 56.462303,71.316742 55.733223,71.507355 
	C58.830559,79.001396 61.837898,86.277679 64.845238,93.553963 
	C65.340317,93.560036 65.835403,93.566109 66.330490,93.572182 
	C69.246300,85.042534 72.329468,76.563522 74.938507,67.941048 
	C75.468498,66.189499 74.499809,63.780075 73.726791,61.874859 
	C70.758224,54.558369 67.588226,47.323605 64.461021,39.982407 
	C71.582962,38.077343 71.642830,38.158340 73.948814,44.053783 
	C75.639160,48.375275 77.514313,52.624474 79.700089,57.844402 
	C81.672844,52.758736 83.732452,48.577881 84.893524,44.160843 
	C86.244736,39.020493 89.094086,38.038727 94.280556,39.752003 
	C91.735519,46.330872 90.223518,53.386383 86.561584,59.052391 
	C78.861488,70.966545 81.957314,81.785690 88.472603,93.607826 
	C90.492195,88.216362 92.709534,83.353691 94.104057,78.265526 
	C95.398376,73.542984 97.669716,71.447594 103.137604,73.130745 
	C99.733910,82.510376 96.495293,91.989876 92.703415,101.242638 
	C92.178635,102.523163 88.920456,103.172684 86.923485,103.181709 
	C85.677017,103.187347 83.825249,101.702087 83.277916,100.438499 
	C81.195663,95.631348 79.533562,90.642212 76.527596,85.575737 
	C74.687431,90.048477 72.752228,94.485268 71.041695,99.007042 
	C69.964607,101.854309 68.810028,103.711197 65.089241,103.593513 
	C61.640110,103.484406 60.298508,102.333374 59.127254,99.172874 
	C55.837986,90.297134 52.106716,81.581406 48.363026,72.882942 
	C47.924225,71.863388 46.415600,70.961845 45.236820,70.664833 
	C41.033958,69.605827 38.768494,67.527771 40.172760,63.310677 
	C44.642796,64.213959 49.061367,65.518768 53.545399,65.807701 
	C55.308502,65.921318 57.217934,63.763977 59.060726,62.640804 
	C57.770218,60.959648 56.813290,58.703247 55.117977,57.720154 
	C51.846748,55.823204 48.073063,54.817997 44.662785,53.129784 
	C39.222462,50.436634 38.156155,43.152557 42.418625,38.914955 
	C46.597225,34.760735 56.962070,34.092434 61.482574,37.870422 
	C62.317520,38.568218 62.458454,40.096424 62.425430,41.854591 
	C61.657089,42.634541 61.383034,42.801258 61.108974,42.967976 
M51.515831,72.444786 
	C51.967140,72.437569 52.418446,72.430351 52.869755,72.423134 
	C52.752949,72.050667 52.636143,71.678207 52.519333,71.305740 
	C52.090775,71.574432 51.662212,71.843124 51.515831,72.444786 
z"/>
<path fill="#D5B02E" opacity="1.000000" stroke="none" 
	d="
M71.445541,121.285858 
	C70.475861,117.958488 69.653923,114.971031 68.831993,111.983566 
	C69.288445,111.740349 69.744888,111.497124 70.201332,111.253906 
	C71.192169,112.675636 72.183006,114.097366 73.113358,115.432320 
	C74.296913,113.996475 75.689949,112.306496 77.082977,110.616508 
	C77.509048,110.855408 77.935112,111.094307 78.361183,111.333206 
	C78.680496,113.145798 78.999802,114.958389 79.514099,117.877838 
	C80.836594,114.843819 81.710625,112.838631 82.584656,110.833450 
	C83.188576,111.039001 83.792496,111.244553 84.396416,111.450111 
	C83.369698,115.009102 82.381485,118.581192 81.190285,122.084259 
	C81.136787,122.241600 78.672684,122.115715 78.319420,121.527946 
	C77.467422,120.110329 77.201561,118.340424 76.540512,116.197815 
	C74.213486,122.335747 74.213486,122.335747 71.445541,121.285858 
z"/>
<path fill="#DBB530" opacity="1.000000" stroke="none" 
	d="
M101.978271,122.020050 
	C101.161430,121.926041 99.770126,121.482986 99.734200,120.948776 
	C99.524055,117.823990 99.631088,114.677856 99.631088,111.594467 
	C106.647362,110.589211 107.886879,111.855156 106.740730,117.896004 
	C106.476311,119.289635 107.264717,120.883034 107.855003,123.799286 
	C105.591805,121.894783 104.054436,120.601074 102.279854,119.107742 
	C102.182999,120.084801 102.106461,120.856850 101.978271,122.020050 
z"/>
<path fill="#DFB830" opacity="1.000000" stroke="none" 
	d="
M54.656616,111.801224 
	C54.817341,115.632858 54.817341,119.067352 54.817341,122.501846 
	C54.356388,122.797821 53.895432,123.093803 53.434479,123.389778 
	C51.582962,121.442345 49.731445,119.494911 47.480995,117.127876 
	C47.157967,119.291183 46.883099,121.131950 46.608234,122.972717 
	C46.226501,122.946770 45.844772,122.920822 45.463039,122.894875 
	C45.463039,119.049736 45.463039,115.204605 45.463039,110.121063 
	C47.850761,112.688599 49.626175,114.597710 51.365673,116.468208 
	C53.335644,115.264671 49.779987,110.826950 54.656616,111.801224 
z"/>
<path fill="#DAB42E" opacity="1.000000" stroke="none" 
	d="
M96.579399,114.727097 
	C97.680641,119.152351 96.250237,122.051521 92.158607,122.996178 
	C89.032753,123.717850 86.061020,122.221275 85.713219,119.140175 
	C85.457733,116.876877 86.611084,113.623466 88.302795,112.152557 
	C91.380859,109.476242 94.421303,110.926941 96.579399,114.727097 
M94.320877,118.132729 
	C93.329430,116.508553 92.337982,114.884377 91.346542,113.260201 
	C90.245140,114.088501 88.463783,114.751953 88.212975,115.786476 
	C87.893333,117.104881 88.811409,118.723373 89.195938,120.212509 
	C90.830261,119.749672 92.464592,119.286842 94.320877,118.132729 
z"/>
<path fill="#D6B02C" opacity="1.000000" stroke="none" 
	d="
M63.628494,111.829086 
	C64.551453,112.090492 65.234360,112.585960 65.917267,113.081436 
	C62.567036,116.434669 64.457542,119.349930 67.180832,122.195602 
	C66.848991,122.513603 66.517151,122.831604 66.185310,123.149605 
	C64.675446,122.245865 63.165577,121.342117 61.419014,120.296700 
	C60.577118,121.033783 59.302814,122.149437 58.028511,123.265091 
	C57.658047,123.076942 57.287582,122.888802 56.917114,122.700653 
	C59.046856,119.051376 61.409393,115.398689 56.746964,111.848984 
	C57.078236,111.581314 57.409512,111.313644 57.740784,111.045975 
	C58.795528,111.619293 59.796700,112.408882 60.924274,112.688248 
	C61.649532,112.867928 62.560638,112.297424 63.628494,111.829086 
z"/>
<path fill="#D4AE2D" opacity="1.000000" stroke="none" 
	d="
M27.093599,113.657967 
	C27.350595,114.514847 27.920450,115.232933 28.511549,115.933083 
	C29.599089,117.221252 31.317648,118.393013 31.561953,119.820580 
	C31.708469,120.676727 29.653702,122.666000 28.421227,122.821449 
	C26.647573,123.045174 24.721869,122.063400 22.861057,121.596138 
	C23.021769,121.002899 23.182480,120.409660 23.343191,119.816422 
	C25.101879,120.069321 26.860567,120.322227 29.045965,120.636490 
	C28.192396,116.846535 20.391808,117.629456 24.288500,112.362305 
	C26.100924,109.912445 28.895536,110.582001 30.952892,113.805428 
	C29.773943,113.707314 28.594992,113.609200 27.093599,113.657967 
z"/>
<path fill="#DCB52D" opacity="1.000000" stroke="none" 
	d="
M126.315948,118.550110 
	C124.627815,116.921127 123.061356,115.642426 122.003792,114.029968 
	C121.809235,113.733322 123.583954,111.361023 124.615753,111.227211 
	C126.177879,111.024628 127.885674,111.945343 129.531570,112.388771 
	C129.416183,112.899574 129.300797,113.410370 129.185410,113.921173 
	C127.744728,113.921173 126.304047,113.921173 125.240730,113.921173 
	C126.866859,116.201988 128.482513,118.308640 129.795685,120.589455 
	C129.910263,120.788460 128.068161,122.756943 127.078003,122.808388 
	C125.296638,122.900940 123.472115,122.162941 121.665627,121.771935 
	C121.829147,121.138474 121.992668,120.505013 122.156189,119.871559 
	C123.235420,120.160118 124.320053,120.659721 125.391220,120.632332 
	C125.813866,120.621529 126.206490,119.436089 126.315948,118.550110 
z"/>
<path fill="#D9B22E" opacity="1.000000" stroke="none" 
	d="
M112.885208,111.925575 
	C113.082253,113.058762 113.158974,113.817245 113.260269,114.818604 
	C115.272652,113.321960 117.022598,112.020500 118.772537,110.719032 
	C119.057793,110.978142 119.343056,111.237251 119.628311,111.496361 
	C118.525543,113.125938 117.422775,114.755524 116.236519,116.508469 
	C117.415916,118.374542 118.630577,120.296394 119.845238,122.218254 
	C119.556129,122.559036 119.267014,122.899826 118.977905,123.240616 
	C117.252632,121.893417 115.527351,120.546219 113.532303,118.988365 
	C113.307091,120.091675 113.027527,121.461220 112.668579,123.219704 
	C110.132896,119.447639 110.369774,113.031990 112.885208,111.925575 
z"/>
<path fill="#DEB731" opacity="1.000000" stroke="none" 
	d="
M39.276386,113.146530 
	C40.263180,112.150711 41.052448,111.447464 41.841717,110.744209 
	C42.048965,110.890114 42.256210,111.036018 42.463459,111.181931 
	C41.041092,114.991425 39.618725,118.800919 37.985073,123.176292 
	C36.324409,119.276367 34.705814,115.475235 33.087215,111.674103 
	C33.286839,111.414848 33.486462,111.155594 33.686081,110.896339 
	C34.740170,111.769485 35.716778,112.775063 36.882648,113.457130 
	C37.425426,113.774681 38.335358,113.464645 39.276386,113.146530 
z"/>
<path fill="#E5BA2B" opacity="1.000000" stroke="none" 
	d="
M61.311722,43.187672 
	C61.383034,42.801258 61.657089,42.634541 62.352509,42.235474 
	C62.354065,42.471203 61.934265,42.939285 61.311722,43.187672 
z"/>
<path fill="#E5BA2B" opacity="1.000000" stroke="none" 
	d="
M51.374741,72.278305 
	C51.662212,71.843124 52.090775,71.574432 52.519333,71.305740 
	C52.636143,71.678207 52.752949,72.050667 52.869755,72.423134 
	C52.418446,72.430351 51.967140,72.437569 51.374741,72.278305 
z"/>
<path fill="#142A3B" opacity="1.000000" stroke="none" 
	d="
M94.209900,118.478371 
	C92.464592,119.286842 90.830261,119.749672 89.195938,120.212509 
	C88.811409,118.723373 87.893333,117.104881 88.212975,115.786476 
	C88.463783,114.751953 90.245140,114.088501 91.346542,113.260201 
	C92.337982,114.884377 93.329430,116.508553 94.209900,118.478371 
z"/>
</svg>